<?xml version="1.0" encoding="utf-8"?>
<!-- Generator: Adobe Illustrator 28.0.0, SVG Export Plug-In . SVG Version: 6.00 Build 0)  -->
<svg version="1.1" id="Layer_1" xmlns="http://www.w3.org/2000/svg" xmlns:xlink="http://www.w3.org/1999/xlink" x="0px" y="0px"
	 viewBox="0 0 4320 4320" style="enable-background:new 0 0 4320 4320;" xml:space="preserve">
<style type="text/css">
	.st0{fill:#B25B36;}
	.st1{fill:#E8BA9A;}
	.st2{fill:#C97043;}
	.st3{fill:#512717;}
	.st4{fill:#FFA357;}
	.st5{fill:#CE763A;}
	.st6{fill:none;}
	.st7{fill:#FFB600;}
	.st8{opacity:0.4;}
	.st9{fill:#FFFFFF;}
	.st10{fill:#FF8500;}
	.st11{fill:#FFF3E9;}
	.st12{opacity:0.3;}
	.st13{fill:#F9D9C2;}
	.st14{fill:#FFAD40;}
	.st15{fill:#E2EEF2;}
	.st16{fill:#F9D3B7;}
	.st17{fill:#FFA1A8;}
	.st18{opacity:0.2;}
	.st19{fill:none;stroke:#512717;stroke-width:28.7618;stroke-miterlimit:10;}
	.st20{fill:#FFCF48;}
	.st21{fill:#FFA04A;}
	.st22{opacity:0.5;}
	.st23{fill:#A9DEFF;}
	.st24{fill:#FFDB8A;}
	.st25{fill:#EF9235;}
	.st26{fill:#FFD45C;}
	.st27{fill:#FFAF45;}
	.st28{fill:#53AEF9;}
	.st29{fill:#3F1A0F;}
	.st30{opacity:0.45;}
	.st31{fill:#FFFFFF;stroke:#000000;stroke-miterlimit:10;}
	.st32{font-family:'UTM-Times';}
	.st33{font-size:1263.6143px;}
</style>
<g>
	<g>
		<path class="st0" d="M2484.7,1835c-92.4,18.4-196.1,28.5-305.6,28.5c-97,0-189.5-8-273.5-22.7c1.5-2.8,3.2-5.6,4.7-8.3
			c0,0,114.3-243.8,286.6-243.8s286.6,243.8,286.6,243.8C2483.8,1833.4,2484.2,1834.3,2484.7,1835z"/>
	</g>
	<g>
		<path class="st1" d="M2305.8,1858.9c-41,3.1-83.3,4.7-126.7,4.7c-32.5,0-64.6-0.9-95.8-2.7c34-14.9,71.9-24,113.5-24
			C2236.6,1836.9,2272.9,1845.2,2305.8,1858.9z"/>
	</g>
	<g>
		<g>
			<path class="st2" d="M2024,1724.9c-94.2,22.4-295.1,112.1-402.6,292.1c-111.1,378.5,741.4-4,741.4-4"/>
		</g>
		<g>
			<path class="st2" d="M2187.1,1863.6c-2.7,0-5.4,0-8,0c-134.1,0-259.5-15.4-366.1-42.2c80.4-53.6,160.9-84.6,211.2-96.6
				L2187.1,1863.6z"/>
		</g>
		<g>
			<path class="st0" d="M2187.1,1863.6c-2.7,0-5.4,0-8,0c-134.1,0-259.5-15.4-366.1-42.2c80.4-53.6,160.9-84.6,211.2-96.6
				L2187.1,1863.6z"/>
		</g>
		<g>
			<path class="st3" d="M1762.6,2198.5c-59.3,0-102.8-12-130.5-36.1c-36.1-31.5-44.3-81.8-24.5-149.5c0.4-1.1,0.8-2.3,1.4-3.3
				c110.4-185,317.4-276.3,411.6-298.7c7.8-1.9,15.4,2.9,17.3,10.7c1.9,7.8-2.9,15.4-10.7,17.3c-89.7,21.4-286.8,108.2-392.6,283.9
				c-15.8,55.1-10.3,94.8,16.3,118c109.2,95.3,546.7-69.3,706-140.8c7.3-3.3,15.7,0,19,7.3c3.2,7.3,0,15.7-7.3,19
				c-1.4,0.6-147.9,66.1-309.8,115.7C1935.9,2179.6,1836.9,2198.5,1762.6,2198.5z"/>
		</g>
	</g>
	<g>
		<g>
			<path class="st0" d="M2882.9,1574.8c0,122-184.1,226.3-444.6,268.6l-45.6-118c223.6-31.7,378.7-98.8,488.7-169.9
				C2882.4,1561.8,2882.9,1568.3,2882.9,1574.8z"/>
		</g>
		<g>
			<path class="st2" d="M2392.5,1725.3c446.6-63.3,619.7-267.5,706.6-363.6c92.9-102.7,253.7,14.4,276.5,56.6
				c26.1,48.4,57.9,104.6-4.6,177c-56.8,30.6-307.7,394.9-842.2,482.2"/>
		</g>
		<g>
			<path class="st0" d="M2882.9,1574.8c0,122-184.1,226.3-444.6,268.6l-45.6-118c223.6-31.7,378.7-98.8,488.7-169.9
				C2882.4,1561.8,2882.9,1568.3,2882.9,1574.8z"/>
		</g>
		<g>
			<path class="st0" d="M3257.3,1703.9c-128.6,123.5-361.9,313.7-728.5,373.5l-40.9-105.6c18.9-34.2-4.8-60,45.7-46.3
				c195.2,53.3,483-107.6,571.1-222.5c60.8-79.1,40.7-148.7,91.9-228.1c8.8-118.5,79.9-66,79.9-66L3257.3,1703.9z"/>
		</g>
		<g>
			<g>
				<path class="st3" d="M2391,1714.7c265.7-39.5,500.3-137.5,679.7-342.9c4.7-5,16.4-18.5,21.3-23.3c13.3-13.9,29.4-25.1,47.4-32.4
					c81.4-32,184.3,20.9,238.9,81.2c9.7,11.2,15.8,25.4,22.8,38.5c32.1,60.5,26.5,117.1-19.2,168.8c-16.7,11.6-32,27.1-46.6,41.9
					c-186.8,198.2-415.6,352.2-681.9,419.4c-40.4,10.4-81.2,19-122.2,25.7c-7.8,1.3-15.2-4-16.6-11.9c-1.3-7.8,4-15.2,11.9-16.6
					c40.3-6.6,80.3-15,119.8-25.2c238.3-60.4,453-194.1,625.2-368c22-21.7,43.3-44.1,65.9-65.8c8.8-8.2,15.8-15.2,27-21.7l-4.1,3.2
					c38-43.1,42.2-86.4,15.2-137.2c-6-11-10.8-23.1-19-32.9c-25.5-28.8-60.5-51.1-96-65.9c-51.6-21.9-112.4-22.9-151,21.9
					c-186.3,222.4-432.8,326.7-715.3,364.2C2381.2,1737.7,2376.2,1717.8,2391,1714.7L2391,1714.7z"/>
			</g>
		</g>
		<g>
			<g>
				<path class="st4" d="M3346,1767.5c-4.2,47.7-46.3,82.8-93.9,78.6s-82.8-46.3-78.6-93.9c2.5-28.8,19-53.1,42.1-66.8l63.2-713.1
					l100.8,8.9l-63.2,713.1C3336.7,1711.9,3348.5,1738.7,3346,1767.5z"/>
			</g>
			<g>
				<path class="st4" d="M3317.8,1677l-1.5,17.3c20.3,17.6,32.2,44.3,29.7,73.1c-4.2,47.7-46.3,82.8-93.9,78.6
					c-47.7-4.2-82.8-46.3-78.6-93.9c2.5-28.8,19-53.1,42.1-66.8l5-55.7l30.2-341l28-316.3l100.8,8.9l-28.3,319.9L3317.8,1677z"/>
			</g>
			<g>
				<path class="st4" d="M3379.5,981.2l-19.6,222l-8.7,98l-33.4,375.9l-1.5,17.3c20.3,17.6,32.2,44.3,29.7,73.1
					c-4.2,47.7-46.3,82.8-93.9,78.6c-47.7-4.2-82.8-46.3-78.6-93.9c2.5-28.8,19-53.1,42.1-66.8l5-55.7l30.2-341l8.3-93.9l19.6-222.4
					L3379.5,981.2z"/>
			</g>
			<g>
				<path class="st5" d="M3379.5,981.2l-19.6,222c-34.7-0.4-72.1-3.7-100.9-8.5l19.6-222.4L3379.5,981.2z"/>
			</g>
			<g>
				<path class="st5" d="M3343,1736.1c2.8,9.9,4,20.5,2.9,31.5c-4.2,47.7-46.3,82.8-93.9,78.6c-47.7-4.2-82.8-46.3-78.6-93.9
					c0.5-5.6,1.5-11,2.9-16.1c9.6,33.5,38.9,59.3,75.7,62.4C3294.1,1802.3,3331.8,1775.3,3343,1736.1z"/>
			</g>
			<g>
				<path class="st5" d="M3351.2,1301.2l-33.4,375.9c-54.3-12-64.9-52.9-97.4-47.4l30.2-341
					C3291.2,1298,3327.6,1300.7,3351.2,1301.2z"/>
			</g>
			<g>
				<path class="st3" d="M3259.7,1860.8c-2.9,0-6-0.1-9-0.4c-55.4-5-96.6-54-91.6-109.5c2.7-29.7,18.4-56.7,42.7-73.8l63.8-720.4
					l129.3,11.5l-63.8,720.4c20.9,21,31.7,50.5,29.1,80.2l0,0C3355.7,1821.1,3311.4,1860.8,3259.7,1860.8z M3291.7,987.9
					l-62.6,706.1l-6.4,3.7c-19.9,11.9-33,32.7-35,55.7c-3.6,39.6,25.9,74.8,65.6,78.4c39.6,3.4,74.8-25.9,78.4-65.5
					c2-23.1-7.3-45.9-24.7-61l-5.6-4.8l62.6-706.1L3291.7,987.9z"/>
			</g>
			<g>
				<path class="st5" d="M3332,944.2l-202-17.8c-25.5-2.3-21.3-30.2-19.8-48.3c1.7-18.1,2.4-46.4,27.9-44.1l202,18l202,18
					c25.5,2.3,21.3,30.2,19.8,48.3c-1.7,18.1-2.4,46.4-27.9,44.1L3332,944.2z"/>
				<path class="st3" d="M3536.7,976.5c-1.3,0-2.7,0-4-0.1l-404.1-35.8c-13.1-1.1-20.8-7.3-24.8-12.2c-11.5-13.8-9.6-33.9-8.2-48.6
					l0.5-6.2c1.3-14.7,2.9-34.8,16.6-46.4c4.8-4.1,13.5-8.8,26.6-7.6l404.1,35.8c13.1,1.1,20.8,7.3,24.8,12.2
					c11.5,13.8,9.6,33.9,8.2,48.6l-0.5,6.2c-1.3,14.7-2.9,34.8-16.6,46.4C3555,972.4,3547.7,976.5,3536.7,976.5z M3333.2,929.9
					l202,18c4,0.4,5.2-0.6,5.6-1c4.6-3.8,5.7-18.2,6.5-26.8l0.6-6.6c0.8-8.5,2.2-22.9-1.7-27.5c-0.4-0.4-1.4-1.7-5.4-1.9
					l-404.1-35.8c-4-0.4-5.2,0.6-5.6,1c-4.6,3.8-5.7,18.2-6.5,26.8l-0.6,6.6c-0.8,8.5-2.2,22.9,1.7,27.5c0.4,0.4,1.4,1.7,5.4,1.9
					L3333.2,929.9z"/>
			</g>
			<g>
				<path class="st4" d="M3313.5,1152.5l-33.9-3.1c-61.3-5.5-106-43.8-124.2-66.3c-9.9-12.2-22.6-39.8-6.1-38.4l172.4,15.3
					l172.4,15.3c16.4,1.4-0.9,26.4-12.7,36.7c-21.9,19-72.6,48.9-133.9,43.5L3313.5,1152.5z"/>
			</g>
			<g>
				<path class="st5" d="M3494.7,1096.7c-1-0.5-2.2-0.9-3.7-1l-172.4-15.3l-172.4-15.3c-0.5,0-1-0.1-1.4,0
					c-4.6-10.8-5.6-21.2,4.6-20.3l344.8,30.6C3504.5,1076.3,3501.4,1086.6,3494.7,1096.7z"/>
			</g>
			<g>
				<path class="st5" d="M3481.4,1112.1c-21.9,19-72.6,48.8-133.9,43.5l-33.9-3.1l-33.9-3.1c-61.4-5.5-106-43.8-124.2-66.3
					c-2-2.5-4.3-5.9-6.2-9.3c27.3,22.3,67.4,44.9,116.7,49.2l39.6,3.6l39.8,3.6c70.6,6.2,129.2-27.4,155.5-49.7
					C3502.1,1088.8,3490.2,1104.5,3481.4,1112.1z"/>
			</g>
			<g>
				<path class="st3" d="M3362.5,1170.6c-5.4,0-10.8-0.3-16.4-0.8l-67.8-6c-78.1-6.9-125.4-60.9-134.2-71.6
					c-0.3-0.3-25-31.9-14.7-51.2c4-7.4,11.7-11.2,20.9-10.4l344.8,30.6c9.2,0.8,16.2,6,18.7,14c6.8,20.9-23.1,47.7-23.4,47.9
					C3481.1,1131.3,3432.1,1170.6,3362.5,1170.6z M3158.1,1060c2,4.5,5,9.9,8.4,14.1c20.5,25.4,62.7,56.5,114.3,61l67.8,6
					c51.6,4.6,98.8-18.7,123.2-40c4.1-3.6,8-8.3,10.7-12.5L3158.1,1060z"/>
			</g>
			<g>
				<path class="st4" d="M3322.8,1048.4l-168.1-14.9c-25.5-2.3-36.4-29.9-40.7-51.5c-4.8-24.6-4.1-45.6,21.4-43.3l195.5,17.3
					l195.5,17.3c25.5,2.3,22.6,23.1,13.5,46.4c-8,20.5-23.6,45.9-49.1,43.6L3322.8,1048.4z"/>
			</g>
			<g>
				<path class="st5" d="M3544.8,1004.7c-3.1-4.2-8.3-6.9-16.7-7.6l-195.5-17.3l-195.5-17.3c-15.7-1.4-22,6-23.4,17.6
					c-4.5-23.8-3.1-43.6,21.8-41.4l391,34.7C3546.3,975.1,3548.8,988,3544.8,1004.7z"/>
			</g>
			<g>
				<path class="st5" d="M3539.9,1019.7c-8,20.5-23.6,45.9-49.1,43.6l-168.1-14.9l-168-14.9c-25.5-2.3-36.3-29.9-40.7-51.5
					c-2.2-11.1-3.3-21.5-1.4-29.3c0.4,2.5,0.9,5.1,1.4,7.8c4.3,21.5,15.2,49.2,40.7,51.5l168,14.9l168.1,14.9
					c25.5,2.3,41-23.1,49.1-43.6c1.9-5,3.7-9.9,4.8-14.5C3548.7,992.3,3545.4,1005.6,3539.9,1019.7z"/>
			</g>
			<g>
				<path class="st3" d="M3494.1,1077.7c-1.5,0-3.1-0.1-4.6-0.3l-336-29.8c-26.9-2.4-45.9-24.7-53.5-63.1
					c-3.3-16.6-5.5-37.2,6.2-50.3c4.8-5.4,14.1-11.6,30.5-10.1l391,34.7c16.4,1.4,24.5,9.2,28.3,15.3c9.3,14.9,3.4,34.9-2.7,50.6
					C3539.9,1059.2,3519,1077.7,3494.1,1077.7z M3131.9,952.8c-2.9,0-4.1,0.6-4.3,0.8c-0.4,0.4-3.6,4.7,0.5,25.6
					c2.8,14.3,10.2,38.5,27.9,40l336,29.8c17.6,1.5,29.2-20.9,34.4-34.5c7.8-19.8,5.4-24.6,5.1-25.1c-0.1-0.3-1.8-1.4-6.4-1.8
					l-391-34.7C3133.3,952.8,3132.5,952.8,3131.9,952.8z"/>
			</g>
			<g>
				<path class="st4" d="M3358.7,643.4l-33.9-3.1c-61.3-5.5-112.1,24.5-133.9,43.5c-11.9,10.3-29.2,35.3-12.7,36.7l172.4,15.3
					l172.4,15.3c16.4,1.4,3.8-26.1-6.1-38.4c-18.2-22.6-63-60.9-124.2-66.3L3358.7,643.4z"/>
				<path class="st3" d="M3524,766.3c-0.8,0-1.7,0-2.4-0.1l-344.8-30.6c-9.4-0.9-16.7-6.2-19.4-14.4c-7-21.7,23.3-48.3,23.6-48.6
					c10.4-9,66.6-54,145.1-47l67.8,6c78.5,7,125.9,61,134.6,71.9c0.3,0.3,25.5,31.9,14.7,52C3539.4,762.2,3532.4,766.3,3524,766.3z
					 M3190.6,706.6l322.4,28.5c-1.9-4.2-4.7-9.2-7.9-13c-20.4-25.2-62.4-56.2-113.9-60.8l-67.8-6c-51.5-4.5-98.4,18.6-122.8,39.9
					C3196.9,698.5,3193.3,702.8,3190.6,706.6z"/>
			</g>
			<g>
				<path class="st4" d="M3349.4,747.7l-168.1-14.9c-25.5-2.3-41,23.1-49.1,43.6c-9.2,23.4-12.1,44.2,13.5,46.4l195.5,17.3
					l195.5,17.3c25.5,2.3,26.3-18.7,21.4-43.3c-4.3-21.7-15.2-49.3-40.7-51.5L3349.4,747.7z"/>
				<path class="st3" d="M3540.2,872.5c-1.5,0-3.2-0.1-4.8-0.3l-391-34.7c-16.7-1.5-24.8-9.3-28.8-15.5c-9.4-15.2-3.6-35.4,2.7-51.2
					c14.3-36.6,37.1-55.4,64.4-53l336,29.8c27.3,2.4,46.4,25,54,63.6c3.3,16.7,5.6,37.6-6.4,50.8
					C3562,866.9,3553.9,872.5,3540.2,872.5z M3141.2,806.3c0,0,1.3,1.1,5.9,1.5l391,34.7c4.6,0.4,6.1-0.5,6.1-0.5s3.4-4-0.8-25
					c-2.8-14.1-10.1-38-27.3-39.5l-336-29.8c-17.2-1.4-28.5,20.6-33.8,34C3138.5,801.8,3141.2,806.1,3141.2,806.3L3141.2,806.3z"/>
			</g>
			<g>
				<g>
					<line class="st6" x1="3249.1" y1="1688.4" x2="3316.3" y2="1694.3"/>
				</g>
				<g>
					<polygon class="st3" points="3249.1,1688.4 3317.6,1680.1 3315,1708.6 					"/>
				</g>
			</g>
			<g>
				<path class="st7" d="M3157.9,878.3c-47.5,16.3-68.2-12.5-55.3-60.9c27.7-104.1,110.6-206.3,250.8-190.8
					c228.2,25.2,221.9,230.9,222.2,244.7c0.8,34-3.7,77.4-32.4,91c-58.4,27.9-106.9-93.3-128.5-5.2c-7.6,31.1,19.6,67.9,0.5,99.4
					c-29.6,48.3-89.6,33.3-95.8-8.3c-6.8-45,14.7-82.1,5.4-113.3c-15-50.1-40.3,5.1-83.7-11.3
					C3200.5,908.1,3230.1,853.4,3157.9,878.3z"/>
			</g>
			<g class="st8">
				<path class="st9" d="M3199.8,726.6c5.7-22.2,26.6-43.5,52-48.4c18.7-3.7,63.3,11.3,94.6,11c31.3-0.4,22.6,65.8,11,74.2
					c-11.6,8.4-45.9-3.6-68.4-9.9C3254.2,743.7,3193.6,751.2,3199.8,726.6z"/>
			</g>
			<g class="st8">
				<path class="st9" d="M3502.5,767.8c2.9-22.7-16.9-58-42.7-60.7c-27.5-2.8-44.9-11.9-54.9-4.7c-8.4,6-9.7,14.9-10.7,33.6
					c-0.8,15,1.5,30.2,11.2,34c10.1,4,22.4,6.4,44.5,6.1C3474.4,775.7,3500.3,784.9,3502.5,767.8z"/>
			</g>
			<g>
				<path class="st10" d="M3443.6,898c31.2,9.6,57.1,41.4,76.7,46.4c28.3,7.1,37.5-41,37.5-64.7c0,0-12.6,57-51.1,34.3
					C3468.3,891.1,3443.6,898,3443.6,898z"/>
			</g>
			<g>
				<path class="st10" d="M3340.1,1031.8c4,17.1,27,19.9,38.5,5.9c19.5-24-21.2-92,40.4-127c0,0-30.1,21.7-23.3,72.1
					c7.1,53.5,1.8,73.4-23.2,80.7C3359.9,1067,3336.5,1059.9,3340.1,1031.8z"/>
			</g>
			<g>
				<path class="st10" d="M3123.9,824.7c0,0-11,34.5,11.9,34.5c22.8,0,56.1-16.3,70.6-12.7c28,6.9,25.1,49.4,43.7,53.4
					c31.1,6.5,45.1-16.1,68.2-5.4c-13-21.5-39.2-10.4-51-13.8c-31.5-8.8-33.3-54.7-55.1-58.1C3190.4,819.3,3133.4,865,3123.9,824.7z
					"/>
			</g>
			<g>
				<path class="st3" d="M3366.4,1100.9c-4.3,0-8.7-0.4-13.1-1.3c-25.5-5.1-44.3-24.5-48-49.3c-3.8-24.8,0.1-46.9,3.7-66.5
					c3.1-17.5,5.9-32.5,2.2-44.9c-2.3-7.6-4.3-10.4-5.1-11.3c-2.3,0.1-8,2.5-11.9,4.2c-13.4,5.7-33.6,14.4-58.2,5
					c-21.5-8.2-28.5-24.6-33.8-36.7c-6.1-14.4-8.2-19.1-39.6-8.4c-33.3,11.5-52.2,2.7-62.3-6.8c-15.8-14.7-19.9-40-11.5-71.5
					c27.5-103.5,113.7-218.3,266.2-201.3c217,24,234.7,202.9,235,257v1.5c1.3,55.8-12.4,90.9-40.5,104.2
					c-34.2,16.3-64.2-5.7-86.1-21.8c-7.4-5.4-21.2-15.5-25.1-14.7c0,0-4.7,2.4-9.4,21.7c-2.4,10.1,0.3,22.4,3.1,35.6
					c4.6,21,9.7,45-4.3,67.9C3413.1,1087.5,3390.5,1100.9,3366.4,1100.9z M3306.6,898.9c3.8,0,7.6,0.8,11.6,2.5
					c12.2,5.7,17.5,19.4,20.4,29.3c5.6,18.9,2.2,37.8-1.4,58.1c-3.2,18.2-6.6,37-3.6,57.1c2.3,15.5,14.7,23.3,25.4,25.5
					c16.8,3.4,33.4-5,44.1-22.6c8-13.1,4.7-28.8,0.8-46.8c-3.4-15.8-6.9-32-2.9-48.6c3.7-15,10.6-35.7,27.5-41.9
					c17.7-6.5,34.3,5.6,51.9,18.5c22.4,16.4,39.5,27.4,56.8,19.1c21.2-10.1,24.8-47.8,24.2-77.7v-2
					c-0.3-48.3-16.1-207.3-209.4-228.6c-134.3-14.8-209.6,83.3-235.4,180.2c-5.4,20.1-4.1,36.2,3.3,43.1c6.1,5.7,18.1,6,33.5,0.6
					l0,0c52.2-18,65.5,1.1,75.3,24.2c4.7,11.1,7.9,17.5,17.6,21.2c13.8,5.2,25,0.5,36.8-4.6C3290.3,902.4,3298.3,898.9,3306.6,898.9
					z M3305.7,927.3L3305.7,927.3L3305.7,927.3z"/>
			</g>
		</g>
		<g>
			<g>
				<path class="st11" d="M3347.4,1624.9c-30.2,6.1-110.9-17.1-77.6-127.3c-10.6-44.7,0.3-87.3,10.2-105c-2.9-22,1.8-42.7,8.2-53.4
					c24.2-41,97.7-49.3,122.3,8.8C3435.1,1406.2,3436.8,1606.7,3347.4,1624.9z"/>
			</g>
			<g>
				<path class="st2" d="M3347.4,1624.9c-30.2,6.1-110.9-17.1-77.6-127.3c-10.6-44.7,0.3-87.3,10.2-105c-2.9-22,1.8-42.7,8.2-53.4
					c24.2-41,97.7-49.3,122.3,8.8C3435.1,1406.2,3436.8,1606.7,3347.4,1624.9z"/>
			</g>
			<g class="st8">
				<path class="st9" d="M3355.2,1622.9c59.8-50.8,55.8-211.5,34.2-262.5c-16.8-39.8-56.5-48.4-87.5-36.8
					c31.2-26.1,87.7-24.8,108.7,24.6C3434.3,1404.4,3436.7,1594.8,3355.2,1622.9z"/>
			</g>
			<g>
				<path class="st0" d="M3410.3,1554.4c-12,36.4-32,64.6-63,71c-30.2,6.2-110.9-17.1-77.6-127.2c-10.6-44.7,0.4-87.3,10.2-105
					c-2.9-21.9,1.8-42.7,8.2-53.4c6.2-10.4,15.5-18.7,26.5-24.5c1.5,19.9,32.9,52.6,35,68.3c11,92.8-51.1,73.9-33.9,103.2
					c-36.6,93.9,35,107.9,59.6,96.7C3389,1577.4,3400.6,1567.3,3410.3,1554.4z"/>
			</g>
			<g>
				<path class="st3" d="M3337.3,1640.9c-21.7,0-48.4-9-66.9-29.3c-16.9-18.6-33.3-53.4-16.1-114.3c-10.1-46.9,1.1-88.1,10.2-107.3
					c-1.9-21.4,2-43.7,10.6-58.2c15.4-26,47.3-42.1,79.5-40c31.5,2,56.8,20.5,69.6,50.6c20.6,48.6,24.7,175.9-11.9,245.6
					c-15.3,29.2-36.2,46.5-62.1,51.9C3346.4,1640.4,3341.9,1640.9,3337.3,1640.9z M3348.9,1321.5c-19.6,0-38.9,10.1-47.9,25.4
					c-4,6.6-8.8,23.8-6.1,43.7l0.6,5l-2.4,4.3c-8.4,15-18.2,54-8.7,94.2l0.9,4l-1.1,3.8c-11.9,39.4-9,70.3,8.3,89.3
					c15.7,17.2,39.8,21.4,51.9,18.9l0,0c16.6-3.4,30.6-15.7,41.4-36.4c33.3-63.2,26.8-182.1,10.8-219.8
					c-11.2-26.3-32.4-31.5-44-32.4C3351.5,1321.6,3350.2,1321.5,3348.9,1321.5z"/>
			</g>
			<g>
				<path class="st3" d="M3337.2,1640.2c-21.4,0-48-9-66.4-29.2c-16.8-18.5-33.1-53.1-15.8-113.9c-10.1-46.9,1.1-88.1,10.2-107.2
					c-2-21.3,2-43.6,10.4-58c15.3-25.9,47-41.8,78.9-39.6c31.2,2,56.5,20.4,69.1,50.1c20.5,48.4,24.7,175.5-11.9,245.1
					c-15.2,28.9-35.9,46.3-61.5,51.5C3346.2,1639.8,3341.9,1640.2,3337.2,1640.2z M3348.9,1320.8c-19.8,0-39.4,10.2-48.6,25.7
					c-5,8.4-8.7,26.3-6.2,44.2l0.6,4.7l-2.3,4.2c-8.5,15.2-18.4,54.3-8.8,94.7l0.9,3.8l-1.1,3.7c-12,39.6-9,70.7,8.4,90
					c15.8,17.3,40.3,21.7,52.5,19.1l0,0c16.8-3.4,30.8-15.8,41.9-36.7c33.9-64.5,27.3-181.6,10.8-220.5
					c-11.3-26.6-32.7-31.9-44.5-32.7C3351.5,1321,3350.2,1320.8,3348.9,1320.8z"/>
			</g>
			<g>
				<path class="st3" d="M3264.3,1392.2c28.9-34.8,84.4-21.9,114.3,2.3c-17.1-7.5-35.6-10.6-52.8-8.3c-13.5,1.7-32.5,8.4-36.8,20.6
					C3289,1407,3264.3,1392.2,3264.3,1392.2L3264.3,1392.2z"/>
			</g>
			<g>
				<path class="st3" d="M3251.9,1509.3c18.2-38.6,93.5-38.4,119.5-9.4c-16.6-10.6-37-11-55.2-6.4c-12.6,3.3-25.4,8.8-33.8,18.1
					c-2.4,2.7-3.4,5.5-3.1,6.5L3251.9,1509.3L3251.9,1509.3z"/>
			</g>
			<g>
				<path class="st2" d="M3075.4,1423.9c14-106.9,153.8-181,220.2-125.3c41.5,34.9,57.6,142.6,0.4,152.3
					c-45.7,7.8-59.8-51.5-59.8-51.5c-12.1,20.6-20.4,66-54.3,97.4"/>
			</g>
			<g class="st8">
				<path class="st9" d="M3315,1442.5c11.9-36.2-4.3-94.4-32.5-118.1c-57.2-47.9-170.1,2.9-204.8,87.3
					c22.6-100.2,154.1-166.6,218-112.9C3331.8,1329,3348.7,1414.2,3315,1442.5z"/>
			</g>
			<g>
				<path class="st3" d="M3075.4,1423.9c-17.6-128.1,215-241,266.2-84.5c10.7,32,14.9,68.8-2,100c-15.7,29.8-59.3,38.2-85.5,17.3
					c-17.5-13.5-26.8-33-31.7-53.9l26.4,4c-10.1,13.3-18.4,32.7-28,47.4c-10.3,16.4-23.2,31.6-38.6,42.7
					c26.5-31,28.3-67.7,41.9-104.6l26.4,4c6.1,18.7,21.3,43.8,43.6,38c37.6-9.9,18.9-87.8,1.1-110.4c-16.7-25.4-46.8-31-76.8-25.7
					C3152.2,1310.6,3103.1,1363.8,3075.4,1423.9L3075.4,1423.9z"/>
			</g>
			<g>
				<g>
					<path class="st9" d="M3251.4,1349.3c0,0-15,17.3-15.2,50.3"/>
				</g>
				<g>
					<path class="st3" d="M3251.4,1349.3c-6.6,16.4-5.6,34-0.9,50.5l-28.7-0.1C3226.6,1380.6,3236.1,1361.1,3251.4,1349.3
						L3251.4,1349.3z"/>
				</g>
			</g>
		</g>
	</g>
	<g>
		<g>
			<path class="st2" d="M2835.6,2343.6c12,42.3,7.6,90.1-24.1,126.4c-73,83.3-183,45.1-183,45.1l-68.3-169.5
				c20,5,42.2-17.7,68.4-42.9c31.9-30.6,69.6-64.6,116.6-56.7C2785.9,2252.7,2821.9,2294.3,2835.6,2343.6z"/>
		</g>
		<g class="st12">
			<path class="st9" d="M2693.7,2290.2c29.2-35.8,94.3,1.7,87.8,26.5c-4.3,16.7-27.4-3.3-60.8-7.5
				C2700.4,2306.6,2686.8,2298.7,2693.7,2290.2z"/>
		</g>
		<g>
			<path class="st0" d="M2835.6,2343.6c12,42.3,7.6,90.1-24.1,126.4c-73,83.3-183,45.1-183,45.1l-68.3-169.5
				c20,5,42.2-17.7,68.4-42.9c17.1,9.6,55.4,53.6,79.6,111.6C2730,2466.4,2821.2,2429.7,2835.6,2343.6z"/>
		</g>
		<g>
			<path class="st3" d="M2688.3,2538.3c-35.7,0-62.2-8.9-64.5-9.7c-7.5-2.5-11.5-10.8-8.9-18.2c2.5-7.5,10.7-11.5,18.2-8.9
				c4.3,1.4,101.9,33.6,167.4-41c27.5-31.5,34.3-77.6,18-123.2c-14.7-41-45.1-72-75.6-77.1c-42.1-7-77.4,27-108.6,57.1
				c-27.4,26.3-51,49.1-77.6,42.4c-7.6-1.9-12.4-9.7-10.4-17.3c1.9-7.6,9.7-12.4,17.3-10.4c11.2,2.8,31.3-16.6,50.8-35.3
				c34.3-33,77-73.9,133.2-64.6c41.2,6.9,79.5,44.5,97.9,95.8c19.9,55.7,11.2,112.4-23.3,151.9
				C2780.7,2527,2728.7,2538.3,2688.3,2538.3z"/>
		</g>
	</g>
	<g>
		<g>
			<path class="st2" d="M2047.8,2756.5l-388,101.9c0,0-107.8,12.4-182.4,12.4c-151.4,0-196.5-235.4-196.5-235.4l159.3-155.6
				l403.3-125.1"/>
		</g>
		<g>
			<path class="st0" d="M2047.8,2756.5l-387.9,101.9c0,0-107.8,12.4-182.4,12.4c-151.4,0-196.5-235.4-196.5-235.4l121.4-118.6
				l37.7-37l45.6-14.1l15,15.3c61.7,35.4,62.4,180.2,174.6,156.7c82.3-17.2,117.7-150.4-24.5-223.3l89.2-27.7l94.3-29.3l9-2.8
				l31.5,61.9L2047.8,2756.5z"/>
		</g>
		<g>
			<path class="st3" d="M1477.5,2885.1c-161.5,0-208.6-236.9-210.5-247l-1.4-7.5l167.1-163.4l3.3-1l403.3-125.1
				c7.5-2.3,15.7,1.9,18,9.4c2.3,7.5-1.9,15.5-9.4,18l-400,124.1l-151,147.6c9,38.7,57.3,216.3,180.7,216.3
				c69.1,0,168.6-10.8,179.7-12.1l387-101.7c7.6-2,15.5,2.5,17.6,10.2c2,7.6-2.5,15.5-10.2,17.6l-389,102.2l-1,0.1
				C1657,2873.2,1552,2885.1,1477.5,2885.1z"/>
		</g>
		<g>
			<path class="st2" d="M1659.8,2858.4c-38.4,10.3-180.1,50.5-270.4,20.1c-113.7-38.1-173.1-187.7-157.5-296.9
				c23.2-162.5,181-178.3,261.2-108.2c38.5,33.6,70.2,109.3,66.9,178.8L1659.8,2858.4z"/>
		</g>
		<g>
			<path class="st0" d="M1659.8,2858.4c-38.4,10.3-180.1,50.5-270.4,20.1c-75.6-25.4-127.2-99.9-148.6-179.3
				c1.5,3.6,55.8,122.6,176.7,110.7c120.8-11.9,142.7-163.6,106.9-297.4c22.7,38.4,38,90.6,35.7,139.7L1659.8,2858.4z"/>
		</g>
		<g>
			<path class="st3" d="M1663.5,2872.3c-91.1,24-210.1,52.1-300,11.3c-95.1-46.9-144-155.6-148.3-257.7
				c-3.3-78.9,30.7-166.3,110-195.4c57-21.7,123.9-10.4,171.4,27.1c50.2,41.8,71.1,132.1,63.5,194.5c-0.8-24.7-5.9-48.9-13.8-71.7
				c-15.3-44.2-41.4-85-81.3-109.8c-56.8-35.7-140-28.8-183,25.2c-82.1,105-23.7,305.3,93.8,361.8c42.8,20.1,91.1,19.5,137.6,15.4
				c47.9-4.8,95.3-15.4,142.6-28.5L1663.5,2872.3L1663.5,2872.3z"/>
		</g>
		<g>
			
				<ellipse transform="matrix(0.9832 -0.1823 0.1823 0.9832 -469.1273 301.2961)" class="st13" cx="1404.3" cy="2702.4" rx="90.2" ry="100.7"/>
		</g>
		<g>
			
				<ellipse transform="matrix(0.9832 -0.1823 0.1823 0.9832 -441.7754 309.5822)" class="st13" cx="1463" cy="2557.7" rx="33.1" ry="37"/>
		</g>
		<g>
			
				<ellipse transform="matrix(0.9832 -0.1823 0.1823 0.9832 -453.0995 279.6325)" class="st13" cx="1294.4" cy="2604.3" rx="33.1" ry="37"/>
		</g>
		<g>
			
				<ellipse transform="matrix(0.9832 -0.1823 0.1823 0.9832 -441.7651 292.1054)" class="st13" cx="1368" cy="2548.9" rx="36.8" ry="41"/>
		</g>
	</g>
	<g>
		<g>
			<path class="st2" d="M2345.5,2756.5l388,101.9c0,0,107.8,12.4,182.4,12.4c151.4,0,196.5-235.4,196.5-235.4l-159.2-155.6
				l-403.3-125.1"/>
		</g>
		<g>
			<path class="st0" d="M2345.5,2756.5l387.9,101.9c0,0,107.8,12.4,182.4,12.4c151.4,0,196.5-235.4,196.5-235.4l-121.4-118.6
				l-37.7-37l-45.6-14.1l-15,15.3c-61.7,35.4-62.4,180.2-174.6,156.7c-82.3-17.2-117.7-150.4,24.5-223.3l-89.2-27.7l-94.3-29.3
				l-9-2.8l-31.5,62.1L2345.5,2756.5z"/>
		</g>
		<g>
			<path class="st3" d="M2915.9,2885.1c-74.5,0-179.6-12-184-12.5l-2-0.4l-388-101.9c-7.6-2-12.2-9.8-10.2-17.6
				c2-7.6,9.8-12.2,17.6-10.2l387,101.7c11.1,1.3,110.6,12.1,179.7,12.1c123.5,0,171.6-177.5,180.7-216.3l-151-147.6l-400-124.1
				c-7.5-2.3-11.9-10.3-9.4-18c2.4-7.6,10.4-11.9,18-9.4l406.6,126.2l167.2,163.4l-1.4,7.5
				C3124.5,2648.2,3077.4,2885.1,2915.9,2885.1z"/>
		</g>
		<g>
			<path class="st2" d="M2733.5,2858.4c38.4,10.3,180.1,50.5,270.4,20.1c113.7-38.1,173.1-187.7,157.5-296.9
				c-23.2-162.5-181-178.3-261.2-108.2c-38.5,33.6-70.2,109.3-66.9,178.8L2733.5,2858.4z"/>
		</g>
		<g>
			<path class="st0" d="M2733.5,2858.4c38.4,10.3,180.1,50.5,270.4,20.1c75.6-25.4,127.2-99.9,148.6-179.3
				c-1.5,3.6-55.8,122.6-176.7,110.7c-120.8-11.9-142.7-163.6-106.9-297.4c-22.7,38.4-38,90.6-35.7,139.7L2733.5,2858.4z"/>
		</g>
		<g>
			<path class="st3" d="M2737.2,2844.5c84,22,198.5,50,280.2,13.1c133.3-59.3,196.6-335.9,40.4-400.3
				c-41.8-16.1-91.5-10.2-129.6,13.3c-39.9,24.8-66,65.6-81.3,109.8c-7.8,22.9-13,47-13.8,71.7c-7.6-62.4,13.3-152.7,63.5-194.5
				c47.5-37.6,114.4-48.8,171.4-27.1c79.1,29.1,113.3,116.5,110,195.4c-4.2,102.1-53.3,210.8-148.3,257.7
				c-89.8,40.9-208.7,12.6-300-11.3C2729.8,2872.3,2737.2,2844.5,2737.2,2844.5L2737.2,2844.5z"/>
		</g>
		<g>
			
				<ellipse transform="matrix(0.1823 -0.9832 0.9832 0.1823 -213.7502 5148.7856)" class="st13" cx="2988.7" cy="2702.9" rx="100.7" ry="90.2"/>
		</g>
		<g>
			
				<ellipse transform="matrix(0.1823 -0.9832 0.9832 0.1823 -119.488 4972.7539)" class="st13" cx="2930" cy="2558.2" rx="37" ry="33.1"/>
		</g>
		<g>
			
				<ellipse transform="matrix(0.1823 -0.9832 0.9832 0.1823 -27.3234 5176.6387)" class="st13" cx="3098.7" cy="2604.7" rx="37" ry="33.1"/>
		</g>
		<g>
			
				<ellipse transform="matrix(0.1823 -0.9832 0.9832 0.1823 -33.0789 5059.0376)" class="st13" cx="3025.1" cy="2549.4" rx="41" ry="36.8"/>
		</g>
	</g>
	<g>
		<path class="st14" d="M1880.1,2083.5c-1.7-0.3-3.4-0.6-5.1-1C1875.8,2082.6,1877.6,2082.9,1880.1,2083.5z"/>
	</g>
	<g>
		<path class="st2" d="M2483.3,1832.6c119.1,212.3,241,471,169.9,665.6l-182.2,236.3c-37.8,21.8-124.4,61.5-274.1,61.5
			c-149.7,0-236.3-39.8-274.1-61.5l-182.2-236.3c-71.2-194.6,50.7-453.3,169.9-665.6c0,0,114.3-243.8,286.6-243.8
			S2483.3,1832.6,2483.3,1832.6z"/>
	</g>
	<g>
		<path class="st0" d="M2484.7,1835c-92.4,18.4-196.1,28.5-305.6,28.5c-97,0-189.5-8-273.5-22.7c1.5-2.8,3.2-5.6,4.7-8.3
			c0,0,114.3-243.8,286.6-243.8s286.6,243.8,286.6,243.8C2483.8,1833.4,2484.2,1834.3,2484.7,1835z"/>
	</g>
	<g>
		<path class="st2" d="M2653.1,2498.2l-182.2,236.3c-37.8,21.8-124.4,61.5-274.1,61.5c-149.7,0-236.3-39.8-274.1-61.5l-182.2-236.3
			c-19.8-53.9-24.6-112.8-18.9-174.1c77.1,47.1,233.1,117.7,475.3,117.7s398.2-70.6,475.3-117.7
			C2677.7,2385.5,2672.9,2444.3,2653.1,2498.2z"/>
	</g>
	<g>
		<path class="st1" d="M2584.8,2483.5c-49.6,134.4-185,248.9-388.2,253.3c-203-4.5-338.6-118.9-388.2-253.3
			c-14-38.4-19.2-79.6-17.7-122.7c87.7,40.3,221.9,81,405.9,81s318.1-40.8,405.9-81C2604.1,2403.9,2598.8,2445.2,2584.8,2483.5z"/>
	</g>
	<g>
		<path class="st0" d="M2653.1,2498.2l-182.2,236.3c-37.8,21.8-124.4,61.5-274.1,61.5c-149.7,0-236.3-39.8-274.1-61.5l-182.2-236.3
			c-19.8-53.9-24.6-112.8-18.9-174.1c77.1,47.1,233.1,117.7,475.3,117.7s398.2-70.6,475.3-117.7
			C2677.7,2385.5,2672.9,2444.3,2653.1,2498.2z"/>
	</g>
	<g>
		<path class="st15" d="M2399.3,1918c-62.8,11.5-131.1,17.7-202.5,17.7s-139.7-6.2-202.5-17.7c52.4-45.4,119.8-81,202.5-81
			S2347,1872.7,2399.3,1918z"/>
	</g>
	<g>
		<path class="st16" d="M2584.8,2483.5c-49.6,134.4-185,248.9-388.2,253.3c-203-4.5-338.6-118.9-388.2-253.3
			c-31-84.6-19-183.5,13.6-284.2h748.9C2603.8,2300,2615.8,2398.9,2584.8,2483.5z"/>
	</g>
	<g>
		<path class="st13" d="M2196.8,1836.9c212.3,0,324.1,235.1,336.9,264.4c58,132.9,92.3,270,51.2,382.2
			c-49.6,134.4-185,248.9-388.2,253.3c-203-4.5-338.6-118.9-388.2-253.3c-41-112-6.8-249,51.1-381.9
			C1872.5,2072.3,1984.5,1836.9,2196.8,1836.9z"/>
	</g>
	<g>
		<path class="st1" d="M2305.8,1858.9c-41,3.1-83.3,4.7-126.7,4.7c-32.5,0-64.6-0.9-95.8-2.7c34-14.9,71.9-24,113.5-24
			C2236.6,1836.9,2272.9,1845.2,2305.8,1858.9z"/>
	</g>
	<g>
		<path class="st1" d="M2584.8,2483.5c-49.6,134.4-185,248.9-388.2,253.3c-203-4.5-338.6-118.9-388.2-253.3
			c-14-38.4-19.2-79.6-17.7-122.7c87.7,40.3,221.9,81,405.9,81s318.1-40.8,405.9-81C2604.1,2403.9,2598.8,2445.2,2584.8,2483.5z"/>
	</g>
	<g>
		<path class="st11" d="M2584.8,2483.5"/>
	</g>
	<g>
		<path class="st3" d="M1910.2,1832.6c-92.6,203.5-215.4,435.8-169.9,665.6c-14-26.3-23.1-55.4-28-85.1
			C1681.3,2222.9,1808,1987.8,1910.2,1832.6L1910.2,1832.6z"/>
	</g>
	<g>
		<path class="st3" d="M2470.9,2734.4c-125.9,92.4-345.5,96.3-486,35.9c-21.9-9.9-43.3-21.4-62.2-35.9
			C2084.8,2798.5,2308.7,2798.8,2470.9,2734.4L2470.9,2734.4z"/>
	</g>
	<g>
		<path class="st3" d="M2483.3,1832.6c102.2,155.1,228.9,390.2,197.9,580.4c-5,29.7-14,58.9-28,85.1c12.2-58.2,12.6-115.8,5.6-172.9
			C2636.7,2150.4,2556.2,1991.1,2483.3,1832.6L2483.3,1832.6z"/>
	</g>
	<g>
		<g>
			<path class="st2" d="M1804.6,537l-270.7,259.5c0,0-123.5-13-211.7-108.4c-29.8-32.2-55.6-73.9-71.1-127.7
				c-47.9-165.3,79.6-305.1,256.9-312.6c84.1-3.6,147.2,37.8,193.2,90.3l0,0C1775.4,423.1,1804.6,537,1804.6,537z"/>
		</g>
		<g>
			<path class="st0" d="M1525.2,769.7c-31.1-5.9-118.6-28-183.8-98.5c-30.3-32.7-52.4-72.4-65.5-117.6
				c110,104-7.5-232.2,309.5-153.9C1588.4,400.4,1525.2,769.7,1525.2,769.7z"/>
		</g>
		<g class="st8">
			<path class="st9" d="M1764.6,434.6c-50.2-76.1-128.2-148.6-242.4-143.7c-143.4,6.1-256.5,93.2-281,211.7
				c-6.9-138.9,110.6-248.1,266.7-254.9C1641.1,242,1721.6,349,1764.6,434.6z"/>
		</g>
		<g>
			<path class="st3" d="M1533.9,810.9c-0.5,0-1,0-1.5-0.1c-2.4-0.3-58.7-6.5-123.4-39.8c-60-30.8-138.4-91.8-171.8-206.6
				c-21.9-75.8-9.8-151.4,34.2-212.6c51-71,137-114.2,235.9-118.4c95.3-4.1,179.6,47,243.5,147.8c47.3,74.5,66.8,149.2,67.5,152.3
				c1.9,7.6-2.7,15.5-10.3,17.5c-7.6,2-15.5-2.7-17.5-10.3c-0.8-2.9-76.3-287.5-282-278.6c-90.1,3.8-168,42.7-213.8,106.5
				c-38.7,54-49.4,120.7-29.9,187.8c58.5,201.1,268.5,225.6,270.7,225.7c7.9,0.9,13.6,7.9,12.7,15.8
				C1547.4,805.4,1541.2,810.9,1533.9,810.9z"/>
		</g>
		<g>
			<path class="st17" d="M1681.7,543.3c0,0-42.7-166.3-165-161.1c-98.6,4.2-169.7,82.1-143,174.1
				c34.3,118.4,157.4,131.4,157.4,131.4"/>
		</g>
		<g>
			<path class="st13" d="M1681.7,543.3l-126,120.8l-24.6,23.6c0,0-123.1-13-157.4-131.4c-26.6-92,44.3-169.9,143-174.1
				c34.8-1.5,63.1,10.8,85.9,29.3C1659.8,458,1681.7,543.3,1681.7,543.3z"/>
		</g>
		<g>
			<path class="st13" d="M1681.7,543.3l-126,120.8l-24.6,23.6c0,0-95.1-10.1-141.3-92.8c-6.4-11.5-11.9-24.2-16.1-38.6
				c-14.7-50.5,0.1-96.7,32.9-129c26.8-26.4,65.6-43.3,110.2-45.2c34.8-1.4,63.1,10.8,85.9,29.3
				C1659.8,458,1681.7,543.3,1681.7,543.3z"/>
		</g>
		<g>
			<path class="st1" d="M1681.7,543.3l-126,120.8l-24.6,23.6c0,0-95.1-10.1-141.3-92.8c26.4,15.4,63.2,29.7,95.1,15.3
				c83.1-37.7,106.7-104.4,74.5-159.7c-26.3-45.2-108.7-33.3-152.8-23.1c26.8-26.4,65.6-43.3,110.2-45.2
				c34.8-1.4,63.1,10.8,85.9,29.3C1659.8,458,1681.7,543.3,1681.7,543.3z"/>
		</g>
		<g>
			<path class="st3" d="M1531.1,702c-0.5,0-1,0-1.5-0.1c-5.4-0.5-133-15.4-169.7-141.7c-12.7-44.1-5.7-88.1,20-123.9
				c29.6-41.2,79.1-66.1,136.2-68.6c132.5-5.5,177.8,164.6,179.6,171.8c1.9,7.6-2.7,15.5-10.3,17.5c-7.6,1.9-15.5-2.7-17.5-10.3l0,0
				c-0.4-1.5-41.3-155-150.5-150.2c-48.2,2-89.7,22.7-114.1,56.6c-20.4,28.4-26,63.6-15.7,99.1c31.1,107.4,140.6,120.7,145.1,121.2
				c7.9,0.9,13.5,7.9,12.7,15.8C1544.5,696.6,1538.2,702,1531.1,702z"/>
		</g>
	</g>
	<g>
		<g>
			<path class="st2" d="M2588.9,537l270.7,259.5c0,0,123.5-13,211.7-108.4c29.8-32.2,55.6-73.9,71.1-127.7
				c47.9-165.3-79.6-305.1-256.9-312.7c-84.1-3.6-147.2,37.8-193.2,90.3l0,0C2618.1,423.1,2588.9,537,2588.9,537z"/>
		</g>
		<g>
			<path class="st0" d="M2868.4,769.7c31.1-5.9,118.6-28,183.8-98.5c30.3-32.7,52.4-72.4,65.5-117.6c-110,104,7.5-232.2-309.5-153.9
				C2805,400.4,2868.4,769.7,2868.4,769.7z"/>
		</g>
		<g class="st8">
			<path class="st9" d="M2628.9,434.6c50.2-76.1,128.2-148.6,242.4-143.7c143.4,6.1,256.5,93.2,281,211.7
				c6.9-138.9-110.6-248.1-266.7-254.9C2752.4,242,2671.9,349,2628.9,434.6z"/>
		</g>
		<g>
			<path class="st3" d="M2859.6,810.9c-7.3,0-13.5-5.5-14.3-12.9c-0.9-7.9,4.8-14.9,12.7-15.8c8.7-0.9,212.3-25.2,270.5-225.8
				c19.5-67.2,8.8-133.9-29.9-187.8c-45.9-63.8-123.7-102.6-213.8-106.5c-205.8-9-281.2,275.8-282,278.6c-2,7.6-9.8,12.4-17.5,10.3
				c-7.6-2-12.4-9.8-10.3-17.5c0.8-3.2,20.3-77.7,67.5-152.3c64-100.8,148.2-151.8,243.5-147.8c98.9,4.2,184.9,47.4,235.9,118.4
				c44.1,61.3,56.2,136.9,34.2,212.6c-33.3,114.8-111.8,175.7-171.8,206.6c-64.6,33.3-120.9,39.5-123.4,39.8
				C2860.6,810.9,2860.1,810.9,2859.6,810.9z"/>
		</g>
		<g>
			<path class="st17" d="M2711.8,543.3c0,0,42.7-166.3,165-161.1c98.6,4.2,169.7,82.1,143,174.1
				c-34.3,118.4-157.4,131.4-157.4,131.4"/>
		</g>
		<g>
			<path class="st13" d="M2711.8,543.3l126,120.8l24.6,23.6c0,0,123.1-13,157.4-131.4c26.6-92-44.3-169.9-143-174.1
				c-34.8-1.5-63.1,10.8-85.9,29.3C2733.7,458,2711.8,543.3,2711.8,543.3z"/>
		</g>
		<g>
			<path class="st13" d="M2711.8,543.3l126,120.8l24.6,23.6c0,0,95.1-10.1,141.3-92.8c6.4-11.5,11.9-24.2,16.1-38.6
				c14.7-50.5-0.1-96.7-32.9-129c-26.8-26.4-65.6-43.3-110.2-45.2c-34.8-1.4-63.1,10.8-85.9,29.3
				C2733.7,458,2711.8,543.3,2711.8,543.3z"/>
		</g>
		<g>
			<path class="st1" d="M2711.8,543.3l126,120.8l24.6,23.6c0,0,95.1-10.1,141.3-92.8c-26.4,15.4-63.2,29.7-95.1,15.3
				c-83.1-37.7-106.7-104.4-74.5-159.7c26.3-45.2,108.7-33.3,152.8-23.1c-26.8-26.4-65.6-43.3-110.2-45.2
				c-34.8-1.4-63.1,10.8-85.9,29.3C2733.7,458,2711.8,543.3,2711.8,543.3z"/>
		</g>
		<g>
			<path class="st3" d="M2862.5,702c-7.3,0-13.5-5.5-14.3-12.9c-0.9-7.9,4.8-14.9,12.7-15.8c4.6-0.5,114.1-13.8,145.1-121.2
				c10.3-35.4,4.7-70.6-15.7-99.1c-24.3-33.9-66-54.5-114.1-56.6c-1.7-0.1-3.3-0.1-4.8-0.1c-105.6,0-145.3,148.8-145.7,150.4
				c-2,7.6-9.8,12.2-17.5,10.3c-7.6-2-12.2-9.8-10.3-17.5c1.9-7.3,46.9-177.4,179.6-171.8c57,2.4,106.7,27.4,136.2,68.6
				c25.6,35.7,32.7,79.8,20,123.9c-36.6,126.3-164.3,141.1-169.7,141.7C2863.4,702,2863,702,2862.5,702z"/>
		</g>
	</g>
	<g>
		<path class="st2" d="M2311.7,1782c333.4-2.3,773.6-166.3,700.5-579.7c-1.8-8.5,34-601.3-435.8-808.6
			c-132.5-58.4-339.7-75.3-379.7-75.3s-247.2,16.9-379.7,75.3c-469.7,207.2-433.8,800-435.7,808.6
			c-73.1,413.4,367.1,577.4,700.5,579.7"/>
	</g>
	<g>
		<path class="st2" d="M2912.5,1564.7c-140,150.5-391.5,215.7-600.7,217.1h-230c-209.2-1.4-460.5-66.6-600.7-217.1
			c-83.1-89.2-127-208.6-99.8-362.5c1.8-8.5-34-601.3,435.8-808.6c132.5-58.4,339.7-75.3,379.7-75.3c40,0,247.2,16.9,379.6,75.3
			c469.8,207.2,434,800,435.8,808.6C3039.5,1356.1,2995.5,1475.5,2912.5,1564.7z"/>
	</g>
	<g>
		<path class="st2" d="M2919.8,1556.7c-2.4,2.7-4.8,5.4-7.4,8.2c-140,150.5-391.5,215.7-600.7,217.1h-230
			c-209.2-1.4-460.5-66.6-600.7-217.1c-2.4-2.7-5-5.4-7.3-8c-78.4-88.3-118.9-205-92.5-354.5c1.9-8.5-34-601.3,435.8-808.6
			c132.4-58.4,339.7-75.3,379.7-75.3s247.2,16.9,379.6,75.3c469.8,207.2,434,800.1,435.8,808.6
			C3038.7,1351.6,2998.2,1468.3,2919.8,1556.7z"/>
	</g>
	<g>
		<path class="st0" d="M2919.8,1556.7c-2.4,2.7-4.8,5.4-7.4,8.2c-140,150.5-391.5,215.7-600.7,217.1h-230
			c-209.2-1.4-460.5-66.6-600.7-217.1c-2.4-2.7-5-5.4-7.3-8c94.6,49.8,259.5,159.5,722.9,159.5S2825.3,1606.5,2919.8,1556.7z"/>
	</g>
	<g>
		<path class="st13" d="M2196.8,1538.6c132,0,272.3-80,247.7-224.4c-12.5-63.6-96.1-166.8-247.7-166.8s-235.2,103.2-247.7,166.8
			C1924.5,1458.5,2064.8,1538.6,2196.8,1538.6z"/>
	</g>
	<g>
		<path class="st3" d="M2311.7,1782c231.4-28,518.8-86.3,645.1-303.5c32.6-57.7,48.7-124.5,47.4-190.8c0.3-10.1-1-26.1-1.8-36.3
			l-0.6-9l-1.3-8.9l-2.5-18c-0.8-4.3-1.9-12.6-1.8-16.7c2.8-279.2-92.9-588.5-340.4-742.9c-14.8-9.6-32.2-19-47.7-27.4
			c-16.1-7.5-33.4-16.8-49.8-23.2c-103.1-40.8-215.1-57.5-325.2-67.3c-61.4-5.2-122.6,4.6-183.4,12.7
			c-91.2,14.1-182.2,34.5-264.4,77.4c-280.1,142.6-390.6,467.2-388.8,765.7v4.8c0.1,0.1-0.3,7.3-0.5,7.6l-1.3,9
			c-34.8,209.8,72.5,364.2,256,456.3c134.2,66.6,281.9,94.7,431.1,110.5c-100.8,8-203.4-3.6-300.7-31.2
			c-225.9-64.6-429.3-217-422.6-473c0.5-11,1.7-27.8,2.4-38.7c1.4-10.8,3.8-27.8,5.4-38.6c-2.5-152.7,23.3-311.7,85.3-453.5
			c73.8-169.5,198.9-302,370.6-373.8c95.1-38.2,196.6-55.3,297.8-66.9c25.9-2.5,50.5-5.1,76.8-5.5c51.5,1.3,101.6,7.8,152.4,15.3
			c94.3,14.8,189.6,36.6,274.9,81.4c10.3,5,23.6,13.5,33.6,18.9c12.1,6.1,37.1,24.1,48.7,31.5l30.7,23.4l3.8,2.9
			c210.8,174.1,290.7,459.5,287.4,724.3v1.1c0,0,0-0.1,0-0.3c-0.4-0.8,0,0.3,0,0.8l1.4,9.7c0.9,5.5,3.2,23.4,4,29.1
			c0.6,11,2,27.8,2.4,38.7c0.1,8.4-0.4,21.2-0.3,29.2c0.1,12-2.3,27-3.1,38.9C2992.7,1664.8,2594.4,1808.1,2311.7,1782L2311.7,1782z
			"/>
	</g>
	<g>
		<g>
			<path class="st2" d="M1741.4,432.9c180.3-104.9,369.7-92.5,384.7-258.6c0,0,80.7,47,70.7,120.7c21.5-18.1,49.4-51.1,161.3-41.2
				c98.9,8.8,147.8-28.9,147.8-28.9s11.3,118.4-126.2,152"/>
		</g>
		<g>
			<path class="st3" d="M1734.1,420.5c71.1-41.9,150.8-67,227-95.4c75.1-28,144.8-64.6,150.8-152.2c0.8-7.8,7.6-13.6,15.4-12.9
				c2.2,0.3,4.3,0.9,6.1,2c12,7.4,21.7,15.2,31.7,24.6c19.6,18.6,36.1,41.4,43.2,68.2c3.7,13.6,4.5,28.2,2.7,42.2l-23.4-12.9
				c43.6-44,103.7-49.6,162.1-45.2c18.9,1.5,40.1,2.7,59,1.1c30.8-2.7,62.6-9.4,88.7-26.4c8.5-6.6,21.9-0.8,23.1,10.1
				c9.9,83.7-60.3,149.1-140.4,153.3c69.1-28.7,107.6-75.2,111.8-150.6l23.1,10.1c-3.8,2.8-6.6,4.3-10.3,6.5
				c-41.4,22.4-89.8,28.5-136.4,26c-57.9-4.6-118.6-7.5-162,37.1c-9.7,8.8-25.7-0.1-23.4-12.9c6.1-44.7-28.3-83.7-63.7-106.4
				l21.5-11.1c-5.5,72.1-48.6,120.8-111.6,151.3c-55.4,27.4-115.3,44.5-171.9,67c-37.5,14.7-73.9,31.2-108.3,51.2
				C1732.4,454.3,1717.7,430.9,1734.1,420.5L1734.1,420.5z"/>
		</g>
	</g>
	<g>
		<path class="st3" d="M2140,342.8c21-15,34.5-33.4,45.6-56.7l22.4,17.8C2189.5,321.5,2164.9,337.1,2140,342.8L2140,342.8z"/>
	</g>
	<g>
		<polygon class="st3" points="2205.7,1321.1 2203.6,1321.3 2203.6,1320.7 		"/>
	</g>
	<g>
		<g>
			<g>
				<ellipse class="st3" cx="1850.2" cy="1087.8" rx="166" ry="191.8"/>
			</g>
		</g>
		<g>
			<g>
				<ellipse class="st9" cx="1890.1" cy="1088.4" rx="54.2" ry="68.6"/>
			</g>
		</g>
		<g class="st18">
			<g>
				<ellipse class="st9" cx="1775.4" cy="1031.8" rx="29.9" ry="46.4"/>
			</g>
		</g>
	</g>
	<g>
		<g>
			<g>
				<ellipse class="st3" cx="2542.8" cy="1087.8" rx="166" ry="191.8"/>
			</g>
		</g>
		<g>
			<g>
				<ellipse class="st9" cx="2502.9" cy="1088.4" rx="54.2" ry="68.6"/>
			</g>
		</g>
		<g class="st18">
			<g>
				<ellipse class="st9" cx="2617.6" cy="1031.8" rx="29.9" ry="46.4"/>
			</g>
		</g>
	</g>
	<g>
		<path class="st3" d="M2491,743.8c51.2,12.9,62.1,6.2,141.7,25.6c-9.8-37.2-86-160.8-157.1-106.7
			C2450.5,681.9,2455.9,734.9,2491,743.8"/>
	</g>
	<g>
		<path class="st3" d="M1758.6,769.7c9.8-37.2,85.9-160.9,157-106.8c25.1,19.1,19.8,72.1-15.3,81
			C1849,757,1838.1,750.2,1758.6,769.7z"/>
	</g>
	<g>
		<path class="st13" d="M2387.8,1307.6c-46,112.6-133.9,100-191.7,51.5c-57.6,48.6-145.5,61.2-191.5-51.5H2387.8z"/>
	</g>
	<g>
		<path class="st19" d="M3507.8,2886.6"/>
	</g>
	<g>
		<g>
			<g>
				<rect x="2151.2" y="1299.2" class="st20" width="90.1" height="1114.3"/>
			</g>
			<g>
				<path class="st21" d="M2241.3,2268.4v145h-90.1V1299.2h30.7v872.5c0,0,0,53.4,0,72.9C2181.8,2296.5,2241.3,2268.4,2241.3,2268.4
					z"/>
			</g>
			<g>
				<path class="st3" d="M2241.3,2427.7h-90.1c-7.9,0-14.4-6.4-14.4-14.4V1299.2c0-7.9,6.4-14.4,14.4-14.4h90.1
					c7.9,0,14.4,6.4,14.4,14.4v1114.3C2255.7,2421.3,2249.2,2427.7,2241.3,2427.7z M2165.5,2399h61.4V1313.4h-61.4V2399z"/>
			</g>
			<g class="st22">
				<ellipse class="st9" cx="2214.1" cy="1530.3" rx="5.5" ry="137.6"/>
			</g>
		</g>
		<g class="st22">
			<path class="st23" d="M2196.2,2194.5c257.5,0,349.5-52.9,349.5-52.9l-48.9,690.8c0,42.1-134.7,76.1-300.7,76.1
				c-166,0-300.7-34-300.7-76.1l-48.9-690.8l0,0C1846.6,2141.5,1938.6,2194.5,2196.2,2194.5z"/>
		</g>
		<g>
			<path class="st24" d="M2227,2317.2c-79.6-2.5-138.8-87.3-222.9-94.6c-19.9-1.7-94.3-0.1-83.7,88.7l15.7,141.4l254.2,41.5"/>
			<path class="st25" d="M2187.9,2508.6l-254.2-41.5c-6.4-1-11.2-6.2-12-12.6L1906,2313c-4.1-34.2,2.9-60.9,20.9-79.4
				c26.5-27.4,66.6-26.1,78.4-25.1c45.2,4,82.6,27.7,118.6,50.6c34.5,22,67.3,42.7,103.5,44l-0.9,28.7c-44.1-1.4-81.7-25.4-118-48.4
				c-34.8-22-67.5-42.9-105.8-46.3c-6.1-0.5-37.1-2.2-55.2,16.6c-11.6,12-15.9,31-13,56.2l14.5,130.7l243.4,39.8L2187.9,2508.6z"/>
		</g>
		<g>
			<path class="st3" d="M2196.2,2922.9c-81.4,0-158.3-8-216.1-22.7c-65.2-16.4-98.5-39.1-98.9-67.2l-48.9-691.4h14.7l14-1
				l48.9,691.8c0,20.9,101.1,61.7,286.3,61.7c185.3,0,286.3-40.8,286.3-61.7v-1l48.9-690.8l28.7,2l-48.8,690.4
				c-0.5,28-33.8,50.7-98.9,67.2C2354.4,2914.8,2277.7,2922.9,2196.2,2922.9z"/>
		</g>
		<g>
			<path class="st26" d="M2436.6,2812.2c-28.5,14.3-113.4,34.8-240.3,34.8s-211.8-20.5-240.3-34.8l-35.4-500.7
				c14.4,58.1,43.7,76.1,85.9,75.6c94.2-1,163.6-85.6,249.6-123.4c107.3-47,221.6-31.6,216.1,47.7L2436.6,2812.2z"/>
		</g>
		<g>
			<path class="st26" d="M2472.1,2311.4l-28.3,399.8l-7.1,101.1c-28.5,14.3-113.4,34.8-240.3,34.8s-211.8-20.4-240.3-34.8
				l-35.4-500.7c14.4,58.1,43.7,76.1,85.9,75.6c39.4-0.4,74.4-15.4,108.2-35.6c46.9-27.9,91.4-65.8,141.3-87.7
				C2363.1,2216.7,2477.5,2232.1,2472.1,2311.4z"/>
		</g>
		<g>
			<path class="st27" d="M2443.8,2711.1l-7.1,101.1c-28.5,14.3-113.4,34.8-240.3,34.8s-211.8-20.4-240.3-34.8l-35.4-500.7
				c14.4,58.1,43.7,76.1,85.9,75.6c39.4-0.4,74.4-15.4,108.2-35.6c-1.5,121.1,3.4,373.1,68.9,408.8
				C2250.1,2796.4,2384.9,2739.4,2443.8,2711.1z"/>
		</g>
		<g class="st22">
			<path class="st23" d="M2196.2,2194.5c-166.4,0-291.6-19.4-350.9-53.6c-78.6-45.4-71.9-132.3-17.3-172
				c13.3,67.9,228.6,94,368.3,93.2l0,0c139.7,0.8,355-25.2,368.3-93.2c54.5,39.8,61.3,126.7-17.3,172
				C2487.7,2175,2362.6,2194.5,2196.2,2194.5L2196.2,2194.5z"/>
		</g>
		<g class="st22">
			<path class="st9" d="M2568.5,2013c-24.6,23.1-68.3,41-131.9,54.3c-66.1,13.9-153.6,22-234,22c-2.2,0-4.5,0-6.6,0
				c-1.9,0-4.1,0-6.2,0c-80.4,0-168-8.3-234-22c-63.6-13.3-107.3-31.2-131.9-54.3c-7,11.9,54.8,90.1,372.4,90.1
				S2575.5,2024.9,2568.5,2013z"/>
		</g>
		<g class="st12">
			<path class="st28" d="M2571.6,2052.2c-1.3,23.3-15.9,44.3-41.5,59c-54,31.2-175.7,49.1-333.7,49.1l0,0
				c-158.1,0-279.8-17.8-333.9-49.1c-25.5-14.7-40.1-35.6-41.4-59c5.5,6,11.7,11.5,18.9,16.4c57.7,40.3,187.6,63.5,356.4,63.5l0,0
				c168.7,0,298.6-23.2,356.3-63.5C2559.7,2063.6,2566,2058.2,2571.6,2052.2z"/>
		</g>
		<g class="st22">
			<path class="st23" d="M1828,1968.8c-1.4-114.1,71.9-348.3,368.3-348.3s369.6,234.2,368.3,348.3c0,0-18.6,93.2-368.3,93.2
				S1828,1968.8,1828,1968.8z"/>
		</g>
		<g class="st12">
			<path class="st28" d="M2084.7,1686.4c-47.5,13.8-87.8,37.1-120.3,70c-58.9,59.6-82.1,140.7-84.7,197.9
				c13,11.5,60.9,42.3,208,52.8c8.7,0.6-54-26.8-48.3-150.4C2044.6,1743.5,2100.6,1681.9,2084.7,1686.4z"/>
		</g>
		<g>
			<path class="st3" d="M2564.4,1983.2h-0.1c-7.9-0.1-14.3-6.6-14.1-14.5c0.8-64.5-23.8-165.5-95.7-238.3
				c-62.6-63.3-149.5-95.4-258.2-95.4s-195.6,32.1-258.2,95.4c-71.9,72.8-96.5,173.8-95.7,238.3c0.1,7.9-6.2,14.4-14.1,14.5
				c-7.9,0-14.4-6.2-14.5-14.1c-0.9-73.4,26-179.8,104-258.8c68.2-69.1,162-104,278.7-104c116.7,0,210.4,35,278.7,104
				c78,78.9,104.9,185.4,104,258.8C2578.7,1976.9,2572.3,1983.2,2564.4,1983.2z"/>
		</g>
		<g>
			<path class="st3" d="M2196.2,2208.8L2196.2,2208.8c-168.8,0-296-19.8-358.1-55.6c-40.1-23.2-63.6-58.2-65.8-98.5
				c-2-38.1,15.5-74.5,47.1-97.5c4-2.9,9.2-3.6,13.8-1.8s7.9,5.7,8.8,10.6c9.7,50,190.9,82.3,354.1,81.6c2.3,0,4.7,0,7,0
				c161.5,0,337.6-32.4,347.3-81.7c0.9-4.8,4.3-8.8,8.8-10.6c4.6-1.8,9.7-1.1,13.8,1.8c31.5,23.1,49.2,59.5,47.1,97.5
				c-2.2,40.4-25.5,75.3-65.8,98.5C2492.2,2189,2365,2208.8,2196.2,2208.8z M1823,1992.4c-15.2,16.7-23.2,38.4-21.9,60.8
				c1.7,30.3,19.9,57.1,51.4,75.2c57,32.9,182.2,51.7,343.8,51.7l0,0c161.5,0,286.7-18.9,343.8-51.7c31.5-18.2,49.7-44.9,51.4-75.2
				c1.1-22.4-6.9-44.1-21.9-60.8c-60.3,84.7-369.8,84.1-373.2,84C2193,2076.4,1883.3,2077.1,1823,1992.4z"/>
		</g>
		<g class="st22">
			<path class="st9" d="M2371,1725.1c27.4,9.4,56.3,42.7,94.4,115.5c38.1,72.8,22.2,96.5,0.6,97.2c-21.5,0.6-41.9-27.3-64.6-82.7
				C2378.6,1799.3,2327,1709.9,2371,1725.1z"/>
		</g>
		<g>
			<g>
				<ellipse class="st3" cx="2243.3" cy="2531.1" rx="48.2" ry="48.2"/>
			</g>
			<g>
				<ellipse class="st3" cx="2243.1" cy="2530.8" rx="40" ry="40"/>
			</g>
			<g>
				<path class="st29" d="M2282.4,2522.9c4.5,21.7-9.4,42.8-31.1,47.3c-16.7,3.4-33-4-41.7-17.5c8.3,4.8,18.4,6.8,28.4,4.7
					c21.7-4.5,35.6-25.7,31.1-47.3c-1-5-2.9-9.6-5.5-13.6C2272.9,2502,2280,2511.3,2282.4,2522.9z"/>
			</g>
			<g class="st30">
				<ellipse class="st9" cx="2225.9" cy="2513.1" rx="16.7" ry="16.7"/>
			</g>
		</g>
		<g>
			<g>
				<ellipse class="st3" cx="2325.8" cy="2409.2" rx="44.6" ry="44.6"/>
			</g>
			<g>
				<ellipse class="st3" cx="2325.9" cy="2409.2" rx="37.1" ry="37.1"/>
			</g>
			<g>
				<path class="st29" d="M2362,2401.1c4.5,20-8.2,39.8-28.2,44.2c-15.4,3.4-30.7-3.2-38.9-15.5c7.8,4.5,17.1,6,26.4,4
					c20-4.5,32.6-24.2,28.2-44.2c-1-4.6-2.8-8.8-5.4-12.5C2352.9,2381.8,2359.7,2390.5,2362,2401.1z"/>
			</g>
			<g class="st30">
				<path class="st9" d="M2324.6,2389.5c1.9,8.4-3.4,16.7-11.9,18.5c-8.4,1.9-16.7-3.4-18.5-11.9c-1.9-8.4,3.4-16.7,11.9-18.5
					C2314.4,2375.8,2322.7,2381.1,2324.6,2389.5z"/>
			</g>
		</g>
		<g>
			<g>
				<ellipse class="st3" cx="2385.1" cy="2341.8" rx="44.6" ry="44.6"/>
			</g>
			<g>
				<ellipse class="st3" cx="2385.3" cy="2342.2" rx="37.1" ry="37.1"/>
			</g>
			<g>
				<path class="st29" d="M2421.5,2333.9c4.5,20-8.2,39.8-28.2,44.2c-15.4,3.4-30.7-3.2-38.9-15.7c7.8,4.5,17.1,6,26.4,4
					c20-4.5,32.6-24.2,28.2-44.2c-1-4.6-2.8-8.8-5.4-12.5C2412.4,2314.8,2419,2323.3,2421.5,2333.9z"/>
			</g>
			<g class="st30">
				<ellipse class="st9" cx="2368.8" cy="2326" rx="15.5" ry="15.5"/>
			</g>
		</g>
		<g>
			<g>
				
					<ellipse transform="matrix(0.9239 -0.3827 0.3827 0.9239 -766.6684 1010.7159)" class="st3" cx="2157.2" cy="2432.5" rx="48.2" ry="48.2"/>
			</g>
			<g>
				<ellipse class="st3" cx="2157.3" cy="2432.3" rx="40" ry="40"/>
			</g>
			<g>
				<path class="st29" d="M2196.3,2423.8c4.8,21.5-8.8,42.9-30.3,47.8c-16.6,3.7-33.1-3.6-41.9-16.8c8.3,4.7,18.4,6.5,28.5,4.3
					c21.5-4.8,35.2-26.1,30.3-47.8c-1.1-5-3.1-9.6-5.7-13.5C2186.5,2403.1,2193.7,2412.3,2196.3,2423.8z"/>
			</g>
			<g class="st30">
				<ellipse class="st9" cx="2139.5" cy="2414.7" rx="16.7" ry="16.7"/>
			</g>
		</g>
		<g>
			<g>
				<ellipse class="st3" cx="2344.9" cy="2571.2" rx="48.2" ry="48.2"/>
			</g>
			<g>
				<ellipse class="st3" cx="2344.9" cy="2571.1" rx="40" ry="40"/>
			</g>
			<g>
				<path class="st29" d="M2384,2562.5c4.8,21.5-8.8,42.9-30.3,47.8c-16.6,3.7-33.1-3.6-41.9-16.8c8.3,4.7,18.4,6.5,28.5,4.3
					c21.5-4.8,35.2-26.1,30.3-47.8c-1.1-5-3.1-9.6-5.7-13.5C2374.2,2541.9,2381.4,2551.2,2384,2562.5z"/>
			</g>
			<g class="st30">
				<path class="st9" d="M2343.6,2550.2c2,9-3.7,18-12.7,20s-18-3.7-20-12.7c-2-9,3.7-18,12.7-20S2341.6,2541.1,2343.6,2550.2z"/>
			</g>
		</g>
		<g>
			<g>
				<ellipse class="st3" cx="2295.8" cy="2664" rx="48.2" ry="48.2"/>
			</g>
			<g>
				<ellipse class="st3" cx="2296.1" cy="2664.1" rx="40" ry="40"/>
			</g>
			<g>
				<path class="st29" d="M2334.9,2655.3c4.8,21.5-8.8,42.9-30.3,47.8c-16.6,3.7-33.1-3.6-41.9-16.8c8.3,4.7,18.4,6.5,28.5,4.3
					c21.5-4.8,35.2-26.1,30.3-47.8c-1.1-5-3.1-9.6-5.7-13.5C2325.1,2634.7,2332.4,2643.8,2334.9,2655.3z"/>
			</g>
			<g class="st30">
				<ellipse class="st9" cx="2278.1" cy="2646.4" rx="16.7" ry="16.7"/>
			</g>
		</g>
		<g>
			<g>
				
					<ellipse transform="matrix(0.7071 -0.7071 0.7071 0.7071 -1207.3373 2167.2253)" class="st3" cx="2012.4" cy="2541" rx="48.2" ry="48.2"/>
			</g>
			<g>
				<ellipse class="st3" cx="2012.3" cy="2541.1" rx="40" ry="40"/>
			</g>
			<g>
				<path class="st29" d="M2051.5,2532.3c4.8,21.5-8.8,42.9-30.3,47.8c-16.6,3.7-33.1-3.6-41.9-16.8c8.3,4.7,18.4,6.5,28.5,4.3
					c21.5-4.8,35.2-26.1,30.3-47.8c-1.1-5-3.1-9.6-5.7-13.5C2041.7,2511.7,2049,2520.9,2051.5,2532.3z"/>
			</g>
			<g class="st30">
				<ellipse class="st9" cx="1994.8" cy="2523.3" rx="16.7" ry="16.7"/>
			</g>
		</g>
		<g>
			<g>
				
					<ellipse transform="matrix(0.3958 -0.9183 0.9183 0.3958 -1178.526 3511.4485)" class="st3" cx="2079.3" cy="2651.4" rx="48.2" ry="48.2"/>
			</g>
			<g>
				<ellipse class="st3" cx="2079.6" cy="2651.2" rx="40" ry="40"/>
			</g>
			<g>
				<path class="st29" d="M2118.7,2642.7c4.8,21.5-8.8,42.9-30.3,47.8c-16.6,3.7-33.1-3.6-41.9-16.8c8.3,4.7,18.4,6.5,28.5,4.3
					c21.5-4.8,35.2-26.1,30.3-47.8c-1.1-5-3.1-9.6-5.7-13.5C2108.9,2622,2116.1,2631.2,2118.7,2642.7z"/>
			</g>
			<g class="st30">
				<path class="st9" d="M2078.3,2630.2c2,9-3.7,18-12.7,20c-9,2-18-3.7-20-12.7c-2-9,3.7-18,12.7-20
					C2067.3,2615.5,2076.3,2621.3,2078.3,2630.2z"/>
			</g>
		</g>
		<g>
			<g>
				
					<ellipse transform="matrix(0.9239 -0.3827 0.3827 0.9239 -870.4676 1037.3502)" class="st3" cx="2172.3" cy="2706.7" rx="48.2" ry="48.2"/>
			</g>
			<g>
				<ellipse class="st3" cx="2172.3" cy="2706.5" rx="40" ry="40"/>
			</g>
			<g>
				<path class="st29" d="M2211.3,2698c4.8,21.5-8.8,42.9-30.3,47.8c-16.6,3.7-33.1-3.6-41.9-16.8c8.3,4.7,18.4,6.5,28.5,4.3
					c21.5-4.8,35.2-26.1,30.3-47.8c-1.1-5-3.1-9.6-5.7-13.5C2201.5,2677.3,2208.8,2686.5,2211.3,2698z"/>
			</g>
			<g class="st30">
				<ellipse class="st9" cx="2154.5" cy="2688.9" rx="16.7" ry="16.7"/>
			</g>
		</g>
		<g class="st12">
			<path class="st26" d="M2436.6,2812.2c-28.5,14.3-113.4,34.8-240.3,34.8s-211.8-20.5-240.3-34.8l-35.4-500.7
				c14.4,58.1,43.7,76.1,85.9,75.6c94.2-1,163.6-85.6,249.6-123.4c107.3-47,221.6-31.6,216.1,47.7L2436.6,2812.2z"/>
		</g>
		<g>
			<path class="st25" d="M2196.2,2861.2c-119.7,0-211.8-18.7-246.7-36.3c-4.6-2.3-7.5-6.8-7.9-11.9l-35.4-500.7
				c-0.5-7.4,4.7-14,12.1-15.2c7.4-1.1,14.4,3.4,16.2,10.7c13.4,54.2,38.5,65.2,71.7,64.7c55.2-0.5,102.1-32.8,151.6-66.8
				c29.3-20.1,59.6-40.9,92.4-55.3c78.6-34.4,160.9-37,204.5-6.2c22.7,15.9,33.6,39.5,31.7,68l-35.4,500.8
				c-0.4,5.1-3.3,9.6-7.9,11.9C2408.1,2842.5,2315.9,2861.2,2196.2,2861.2z M1969.6,2802.5c32.7,13.1,113.3,29.9,226.6,29.9
				c113.3,0,193.8-16.9,226.7-29.9l34.9-492.1c1.3-18.5-5.1-32.4-19.6-42.6c-35.2-24.8-107.8-21-176.5,9
				c-30.3,13.3-59.4,33.3-87.7,52.6c-51,35-103.6,71.2-167.6,71.9c-28,0.4-50.1-7.1-66.9-22.9L1969.6,2802.5z"/>
		</g>
		<g class="st12">
			<path class="st28" d="M2107.6,2226.5c-107.6-5.6-179.4-20.9-223.1-34l45,635.1c6,5.6,28,18.5,80.3,29.6
				c28.5,6.1,61.4,10.7,96.7,13.5c26.1,2.4,53,3.4,83.2,4c-127.7-66.3-100.5-270.4-98.9-435.8
				C2092.1,2304.9,2047.8,2252.1,2107.6,2226.5z"/>
		</g>
		<g class="st22">
			<path class="st9" d="M2398.1,2215.7l-45.7,647.1c10.6-1.7,20.8-3.6,30.3-5.6c52.2-11.1,74.3-24,80.3-29.6l44.9-635.1
				C2481.9,2200.4,2445.8,2208.9,2398.1,2215.7z"/>
		</g>
	</g>
	<g>
		<g>
			<path class="st13" d="M2357.9,1295.5c39.2,86.4-75.7,145.3-161.7,58.7c-86.1,86.5-201,27.7-161.7-58.7c0,0,63.7-90.5,161.7-90.5
				C2294.3,1205,2357.9,1295.5,2357.9,1295.5z"/>
		</g>
		<g>
			<path class="st1" d="M2196.2,1354.1c-83.6,84.1-194.3,31-164.8-51.4c0.1,64,92.8,82.3,164.8,10.1
				c71.9,72.3,164.5,53.9,164.6-10.1C2390.6,1385.2,2279.9,1438.3,2196.2,1354.1z"/>
		</g>
		<g>
			<path class="st3" d="M2357.9,1295.5c20,29.1,15.7,70.5-12.9,92.9c-27.8,23.3-68.4,25.5-101.3,13.4c-21.9-7.8-41.4-21.3-57.7-37.5
				h20.4c-32.5,32.9-81.2,54.3-127.6,40.7c-49.2-13.5-73.4-65.9-44.3-109.6c-21.5,69.6,44.9,106.5,104.5,80.9
				c21.9-8.5,40.8-25.2,57.2-42.4c16.6,17.1,35,33.6,57.2,42.4C2313.3,1402,2379.3,1365.3,2357.9,1295.5L2357.9,1295.5z"/>
		</g>
	</g>
	<g>
		<g>
			<path class="st3" d="M2291.9,1195.1c-11.3,31.6-45.7,54.5-70.1,67.4c-16.1,8.4-35.2,8.4-51.1,0c-24.3-12.9-58.7-35.8-70-67.5
				c-12.9-36.2,78.4-42.1,95.6-42.1C2213.5,1152.9,2304.7,1158.7,2291.9,1195.1z"/>
		</g>
		<g class="st22">
			<path class="st9" d="M2235.8,1171.4c-7.5,12.7-39.6,12.5-39.6,12.5s-32.1,0.3-39.6-12.6c-5.4-9.2,32.5-10.6,39.6-10.6
				C2203.4,1160.7,2241.3,1162.2,2235.8,1171.4z"/>
		</g>
	</g>
	<g>
		<path class="st3" d="M2229,1258.5c0,0-32.8,21.9-32.8,49.1c0-27.1-32.7-49.1-32.7-49.1l12.4-46.4l20.4,24l20.4-24L2229,1258.5z"/>
	</g>
	<g>
		<g>
			<path class="st2" d="M1770.2,2068c28.2,83.1,125.6,111.9,185.8,162.6c87.8,75.3,76.8,168.3,41.7,208.1
				c-35.2,39.6-101.7,43.1-126.9,40.7c-186.6-21.4-381.3-209.8-249.1-462.3L1770.2,2068z"/>
		</g>
		<g>
			<path class="st2" d="M1997.6,2438.5c-35.2,39.6-101.6,43.1-126.9,40.7c-186.6-21.4-381.3-209.9-249.1-462.3l148.7,51
				c1.4,4.1,2.9,8,4.6,11.9c32.9,74.2,123.9,102.5,181.2,150.8C2043.8,2305.8,2032.8,2398.9,1997.6,2438.5z"/>
		</g>
		<g class="st8">
			<path class="st9" d="M1997.6,2438.5c26-80.2,5.2-158.8-127.6-237.1c-67.3-39.8-89.8-85.3-95.2-121.7
				c32.9,74.2,123.9,102.5,181.2,150.8C2043.8,2305.8,2032.8,2398.9,1997.6,2438.5z"/>
		</g>
		<g>
			<path class="st2" d="M1997.6,2438.5c-35.2,39.6-101.6,43.1-126.9,40.7c-152.3-17.5-310-146.3-290.9-330.3
				c25,83.7,84.4,221,212.9,264.5c136.1,46,207.8-6.4,230.1-67.4C2027.2,2384.4,2015.5,2418.4,1997.6,2438.5z"/>
		</g>
		<g>
			<path class="st0" d="M1997.6,2438.5c-35.2,39.6-101.6,43.1-126.9,40.7c-152.3-17.5-310-146.3-290.9-330.3
				c25,83.7,84.4,221,212.9,264.5c136.1,46,207.8-6.4,230.1-67.4C2027.2,2384.4,2015.5,2418.4,1997.6,2438.5z"/>
		</g>
		<g>
			<path class="st3" d="M1770.2,2068c43.6,68.3,118.1,94,181.6,139.8c45.4,32.4,82.7,82.4,88.2,139.7
				c6.5,63.7-24.3,120.3-87.7,139.7c-80.5,27-168.8-2.8-238.4-45c-123.2-75.9-182.4-217.8-136.9-357.2c8-26,19.1-50.8,31.9-74.4
				c3.8-7,12.5-9.6,19.5-5.9c6.9,3.7,9.4,12.1,6.1,19c-11.3,22.6-20.6,46-27.5,70.2c-21.4,71-14.8,149.7,23.3,213.7
				c53,95.4,202,181.3,310.9,146c48.2-14.3,69.2-55.2,65.1-103c-4.2-47.7-34.7-89.7-72.6-118.1
				C1873.6,2187.1,1779.6,2153.7,1770.2,2068L1770.2,2068z"/>
		</g>
		<g>
			<path class="st3" d="M1865.9,2434.6c34.5,4.6,70.5,2.7,103.6-7.3c10.8-3.1,20.9-7.8,30.6-12.6l11,26.5
				C1963.3,2455.2,1912.1,2450.4,1865.9,2434.6L1865.9,2434.6z"/>
		</g>
		<g>
			<path class="st3" d="M1879.6,2348.6c46.3,8,95.8,10.4,140.8-4.2l6.5,27.9C1976.5,2378.5,1926.1,2366.7,1879.6,2348.6
				L1879.6,2348.6z"/>
		</g>
	</g>
</g>
<text transform="matrix(0.8795 0 0 1 0 3968.9756)" class="st31 st32 st33">Gabotabo</text>
</svg>
